<svg xmlns="http://www.w3.org/2000/svg" viewBox="0 0 48 48" width="48" height="48">
  <rect width="48" height="48" rx="9" fill="#F6F1E7"/>
  <g fill="none">
    <rect x="4" y="5" width="40" height="30" rx="4" stroke="#1E1B18" stroke-width="3"/>
    <path d="M5 29h38" stroke="#1E1B18" stroke-width="3"/>
    <path d="M17 43h14M20 35l-3 8M28 35l3 8" stroke="#1E1B18" stroke-width="3" stroke-linecap="round" stroke-linejoin="round"/>
    <rect x="17" y="12" width="14" height="12" rx="2" stroke="#1E1B18" stroke-width="2.5"/>
    <g stroke="#1E1B18" stroke-width="2" stroke-linecap="round">
      <path d="M21 12V9M24 12V9M27 12V9"/>
      <path d="M21 24v3M24 24v3M27 24v3"/>
      <path d="M17 15h-3M17 21h-3"/>
      <path d="M31 15h3M31 21h3"/>
    </g>
    <path d="M9 18h10l2.5-5 3 11 2.5-6h12" stroke="#FF5A48" stroke-width="2.5" stroke-linecap="round" stroke-linejoin="round"/>
  </g>
</svg>
